Coordinates
version=1
nRows=14
nColumns=40
inDegrees=yes

Units are S.I. units (second, meters, Newtons, ...)
If the header above contains a line with 'inDegrees', this indicates whether rotational values are in degrees (yes) or radians (no).

endheader
time	pelvis_tilt	pelvis_list	pelvis_rotation	pelvis_tx	pelvis_ty	pelvis_tz	hip_flexion_r	hip_adduction_r	hip_rotation_r	knee_angle_r	knee_angle_r_beta	ankle_angle_r	subtalar_angle_r	mtp_angle_r	hip_flexion_l	hip_adduction_l	hip_rotation_l	knee_angle_l	knee_angle_l_beta	ankle_angle_l	subtalar_angle_l	mtp_angle_l	lumbar_extension	lumbar_bending	lumbar_rotation	arm_flex_r	arm_add_r	arm_rot_r	elbow_flex_r	pro_sup_r	wrist_flex_r	wrist_dev_r	arm_flex_l	arm_add_l	arm_rot_l	elbow_flex_l	pro_sup_l	wrist_flex_l	wrist_dev_l
      3.18500000	    -17.30997337	      7.86612917	     -5.84391342	     -0.30057813	      0.90381996	     -1.05426383	     24.24492185	    -12.54454149	      3.24732238	    110.88219741	      1.93525943	     -9.98558173	      0.00000000	      0.00000000	     53.79669567	      5.22152168	    -15.80122776	     61.69271004	      1.07674091	     25.07859479	      0.00000000	      0.00000000	     -6.98471012	    -14.17536704	      3.19284635	     89.94228296	     -8.95534744	     21.75558500	     37.40749383	     86.10387957	      0.00000000	      0.00000000	     89.94753938	    -15.87920884	     26.50764660	     39.63784102	     85.54152890	      0.00000000	      0.00000000
      3.19000000	    -17.35334625	      8.17371485	     -5.87971928	     -0.30086270	      0.90282233	     -1.05434281	     24.27628558	    -12.88049439	      3.37279596	    110.90152552	      1.93559677	    -10.10594124	      0.00000000	      0.00000000	     53.92706999	      5.33231493	    -16.14188200	     61.74110214	      1.07758552	     25.08375738	      0.00000000	      0.00000000	     -7.03028841	    -14.54970092	      3.13209136	     89.94261817	     -8.92602145	     21.54961956	     37.44854384	     86.15358516	      0.00000000	      0.00000000	     89.94799255	    -15.87040843	     26.33197754	     39.78865757	     85.58890527	      0.00000000	      0.00000000
      3.19500000	    -17.45675794	      8.27325606	     -5.91388164	     -0.30084132	      0.90159534	     -1.05435867	     24.27232489	    -12.97841438	      3.41824777	    110.89670113	      1.93551256	    -10.28480334	      0.00000000	      0.00000000	     54.14006258	      5.24788426	    -16.36743169	     61.96470708	      1.08148816	     25.16670425	      0.00000000	      0.00000000	     -6.97747025	    -14.66999560	      3.11283510	     89.94252369	     -8.89471873	     21.47354995	     37.49269740	     86.14198589	      0.00000000	      0.00000000	     89.94819861	    -15.86757048	     26.21168677	     39.86055633	     85.57634890	      0.00000000	      0.00000000
      3.20000000	    -17.50256096	      8.43377985	     -5.91252352	     -0.30109767	      0.90052591	     -1.05441198	     24.22726948	    -13.17093260	      3.38373988	    110.84395968	      1.93459205	    -10.55073124	      0.00000000	      0.00000000	     54.30852852	      5.23737015	    -16.62192223	     62.16107057	      1.08491535	     25.19048026	      0.00000000	      0.00000000	     -7.01915028	    -14.87661294	      3.09737239	     89.94279117	     -8.94769071	     21.30049254	     37.53348645	     86.21180597	      0.00000000	      0.00000000	     89.94870042	    -15.79692056	     26.11020948	     39.96139931	     85.60116092	      0.00000000	      0.00000000
      3.20500000	    -17.51096084	      8.65915516	     -5.97223044	     -0.30101851	      0.89954113	     -1.05438659	     24.15904150	    -13.41961859	      3.44988734	    110.81963006	      1.93416742	    -10.59389887	      0.00000000	      0.00000000	     54.37361330	      5.23879417	    -16.98459021	     62.28042289	      1.08699844	     25.26088779	      0.00000000	      0.00000000	     -7.07086833	    -15.15741772	      3.04155628	     89.94288370	     -8.89249152	     21.16063916	     37.56931931	     86.10962169	      0.00000000	      0.00000000	     89.94901815	    -15.81555769	     26.02455186	     40.06363933	     85.38299802	      0.00000000	      0.00000000
      3.21000000	    -17.72363991	      8.64866544	     -5.87311666	     -0.30147776	      0.89818716	     -1.05438874	     24.23970451	    -13.39331553	      3.31213044	    110.78638118	      1.93358712	    -10.75208192	      0.00000000	      0.00000000	     54.74946025	      5.10504692	    -17.08326666	     62.54331002	      1.09158668	     25.25396146	      0.00000000	      0.00000000	     -6.96987238	    -15.16092055	      2.90963189	     89.94305315	     -8.87331127	     20.98685680	     37.64116306	     86.16358167	      0.00000000	      0.00000000	     89.94934794	    -15.80463762	     25.90174939	     40.16612187	     85.52187316	      0.00000000	      0.00000000
      3.21500000	    -17.82995710	      8.82826939	     -5.86354358	     -0.30167992	      0.89699981	     -1.05444858	     24.29105622	    -13.61205866	      3.30675901	    110.77788150	      1.93343877	    -10.98576757	      0.00000000	      0.00000000	     54.96318058	      5.08360090	    -17.38660295	     62.72071531	      1.09468299	     25.14026460	      0.00000000	      0.00000000	     -6.93708051	    -15.39276947	      2.84520745	     89.94327525	     -8.88363636	     20.88517800	     37.64090919	     86.22155757	      0.00000000	      0.00000000	     89.94983502	    -15.79402974	     25.80911258	     40.27467546	     85.54237761	      0.00000000	      0.00000000
      3.22000000	    -17.71797926	      9.19167783	     -5.89367788	     -0.30156196	      0.89642657	     -1.05455995	     24.08347215	    -14.06782215	      3.40149127	    110.72366866	      1.93249258	    -10.99277135	      0.00000000	      0.00000000	     54.83771005	      5.22942845	    -17.89409723	     62.70960505	      1.09448908	     25.19406834	      0.00000000	      0.00000000	     -7.13347986	    -15.84127923	      2.72050371	     89.94321098	     -8.82548007	     20.70059637	     37.68188468	     86.02890606	      0.00000000	      0.00000000	     89.95013908	    -15.76507882	     25.66677742	     40.36981986	     85.12441037	      0.00000000	      0.00000000
      3.22500000	    -18.02186356	      9.19438094	     -5.85022885	     -0.30204522	      0.89474778	     -1.05454033	     24.33064011	    -14.04890670	      3.30103226	    110.75029709	      1.93295733	    -11.18891172	      0.00000000	      0.00000000	     55.34142381	      5.06826100	    -17.97051495	     63.02689641	      1.10002686	     25.23080497	      0.00000000	      0.00000000	     -6.89575238	    -15.85199460	      2.70165142	     89.94339269	     -8.87369286	     20.63933876	     37.72618337	     86.19653232	      0.00000000	      0.00000000	     89.95050052	    -15.73815123	     25.57445566	     40.46784789	     85.52881216	      0.00000000	      0.00000000
      3.23000000	    -17.91499515	      9.56056543	     -5.90063651	     -0.30189996	      0.89416529	     -1.05455784	     24.16594207	    -14.52372213	      3.39308219	    110.70871399	      1.93223157	    -11.27960726	      0.00000000	      0.00000000	     55.19745536	      5.18340325	    -18.50055579	     62.94989199	      1.09868288	     25.06247857	      0.00000000	      0.00000000	     -7.09062513	    -16.30543273	      2.59406707	     89.94330952	     -8.80532866	     20.50732828	     37.75898901	     85.84432685	      0.00000000	      0.00000000	     89.95092870	    -15.77223675	     25.53142288	     40.63833783	     85.01288214	      0.00000000	      0.00000000
      3.23500000	    -18.24247071	      9.42260840	     -5.73506689	     -0.30246955	      0.89255417	     -1.05462394	     24.34345537	    -14.33258525	      3.15716580	    110.70044502	      1.93208725	    -11.44843902	      0.00000000	      0.00000000	     55.73688076	      4.96512607	    -18.45226321	     63.33552198	      1.10541339	     24.97810685	      0.00000000	      0.00000000	     -6.88158159	    -16.16761085	      2.42230439	     89.94356970	     -8.80239556	     20.38797800	     37.78029221	     86.16821427	      0.00000000	      0.00000000	     89.95111673	    -15.74361346	     25.32041622	     40.74607554	     85.48265252	      0.00000000	      0.00000000
      3.24000000	    -18.20275273	      9.72925029	     -5.77986790	     -0.30237044	      0.89171855	     -1.05464711	     24.25490476	    -14.73741864	      3.21742169	    110.66951133	      1.93154735	    -11.61803439	      0.00000000	      0.00000000	     55.71662070	      5.02516690	    -18.91567508	     63.38183801	      1.10622176	     25.05127792	      0.00000000	      0.00000000	     -6.98215983	    -16.55350261	      2.37406862	     89.94322525	     -8.80399905	     20.25480316	     37.81130576	     86.07515205	      0.00000000	      0.00000000	     89.95177606	    -15.71547095	     25.30206740	     40.83779204	     85.19281543	      0.00000000	      0.00000000
      3.24500000	    -18.17204449	      9.94232440	     -5.78695942	     -0.30228838	      0.89090953	     -1.05450597	     24.11952258	    -15.01104846	      3.20504942	    110.63340346	      1.93091715	    -11.68741578	      0.00000000	      0.00000000	     55.71343855	      5.01548326	    -19.28802844	     63.48852768	      1.10808385	     25.09097705	      0.00000000	      0.00000000	     -7.08591584	    -16.84904727	      2.25227049	     89.94345824	     -8.75713619	     20.20529807	     37.76724594	     85.98086789	      0.00000000	      0.00000000	     89.95188520	    -15.70982929	     25.18273702	     40.96436246	     85.00841183	      0.00000000	      0.00000000
      3.25000000	    -18.53411295	      9.81636016	     -5.60622212	     -0.30286121	      0.88927021	     -1.05461914	     24.34143032	    -14.86993274	      2.93411063	    110.63923578	      1.93101895	    -11.77976053	      0.00000000	      0.00000000	     56.28313828	      4.82707470	    -19.22104526	     63.85169907	      1.11442238	     25.04711285	      0.00000000	      0.00000000	     -6.84733422	    -16.71984617	      2.10026870	     89.94383691	     -8.78734343	     20.08605891	     37.78441590	     86.20916056	      0.00000000	      0.00000000	     89.95209397	    -15.66050727	     25.03385819	     41.05166833	     85.49873735	      0.00000000	      0.00000000
